<svg xmlns="http://www.w3.org/2000/svg" width="13" height="11" viewBox="0 0 13 11">
  <path fill="#ffffff" stroke="#ffffff" d="M10.3816749,10.6502843 L3.03814808,10.6539843 L5.35208253,8.36960543 C5.46539145,8.25807778 5.52754591,8.10699568 5.52754591,7.94842556 C5.52754591,7.78985543 5.46539145,7.63983047 5.35208253,7.52803853 L4.99203383,7.17319382 C4.87881434,7.06166616 4.72794446,7 4.56705831,7 C4.40608274,7 4.25512342,7.06122569 4.14190393,7.17275335 L0.175376342,11.079657 C0.0617096996,11.1916251 -0.000444758399,11.3407692 2.39597527e-06,11.4994274 C-0.000444758399,11.6589666 0.0617096996,11.8081987 0.175376342,11.9199906 L4.14190393,15.8272467 C4.25512342,15.9386862 4.40599331,16 4.56705831,16 C4.72794446,16 4.87881434,15.9385981 4.99203383,15.8272467 L5.35208253,15.4724019 C5.46539145,15.3610505 5.52754591,15.2123469 5.52754591,15.0537768 C5.52754591,14.8952948 5.46539145,14.7544316 5.35208253,14.6429921 L3.01203426,12.3458395 L10.3899026,12.3458395 C10.7214228,12.3458395 11,12.0643775 11,11.7379873 L11,11.2361129 C11,10.9097227 10.7131952,10.6502843 10.3816749,10.6502843 Z" transform="translate(1 -6)"/>
</svg>
