<svg xmlns="http://www.w3.org/2000/svg" width="19" height="20" viewBox="0 0 19 20">
  <path fill="#ffffff" d="M36.3922036,33.7949001 C35.337436,33.7949001 34.3916392,34.2489116 33.7319338,34.9696635 L28.0011106,32.2165711 C28.1381024,31.835464 28.2162846,31.4280976 28.2162846,31 C28.2162846,30.5725935 28.1377565,30.164536 28.0011106,29.7834289 L33.7319338,27.0310276 C34.3916392,27.7514339 35.3384739,28.2064819 36.3922036,28.2064819 C38.3844655,28.2064819 40,26.5932555 40,24.6034137 C40,22.6132265 38.3844655,21 36.3922036,21 C34.3995958,21 32.7844073,22.6132265 32.7844073,24.6034137 C32.7844073,24.79414 32.8037798,24.980029 32.8324928,25.1628084 L26.731861,28.0924608 C26.1354624,27.6571073 25.4027639,27.3972773 24.6074504,27.3972773 C22.6151885,27.3972773 21,29.0101582 21,30.999309 C21,32.9901873 22.6151885,34.6030682 24.6074504,34.6030682 C25.4027639,34.6030682 26.1354624,34.3432382 26.731515,33.9071937 L32.8318009,36.8375371 C32.8034339,37.0203165 32.7837154,37.2062055 32.7837154,37.3969318 C32.7837154,39.3871191 34.3992499,41 36.3918577,41 C38.3841196,41 39.9993081,39.3871191 39.9993081,37.3969318 C39.9993081,35.40709 38.3844655,33.7949001 36.3922036,33.7949001 Z" transform="translate(-21 -21)"/>
</svg>
